<svg viewBox="0 0 32 32" xmlns="http://www.w3.org/2000/svg">
  <style>
    .icon { fill: #4D0DA2; }
    @media (prefers-color-scheme: dark) {
      .icon { fill: #A855F7; }
    }
  </style>
  <path class="icon" fill-rule="evenodd" clip-rule="evenodd" d="M17.8643 1.44367C18.4072 1.67936 18.7297 2.24479 18.6564 2.83212L17.5104 12.0001L25.7703 12.0001C26.0916 12.0001 26.4171 12.0001 26.6831 12.0241C26.9345 12.0468 27.416 12.1071 27.8338 12.4445C28.3118 12.831 28.5856 13.4156 28.5764 14.0303C28.5683 14.5671 28.3063 14.9756 28.1628 15.1833C28.0111 15.4031 27.8027 15.6531 27.597 15.8999L15.6909 30.187C15.312 30.6417 14.6787 30.7921 14.1357 30.5565C13.5928 30.3208 13.2702 29.7553 13.3436 29.168L14.4896 19.0001L6.22961 19.0001C5.90829 19.0001 5.58284 19.0002 5.31693 18.9761C5.06545 18.9534 4.58391 18.8931 4.16628 18.5556C3.68819 18.1693 3.41429 17.5846 3.42357 16.9699C3.43166 16.433 3.69368 16.0245 3.83717 15.8168C3.98892 15.5971 4.19732 15.3471 4.40308 15.1003C4.41326 15.0881 4.42345 15.0759 4.43363 15.0636L16.3091 0.813158C16.688 0.358453 17.3213 0.207981 17.8643 1.44367ZM6.84671 17.3334H16C16.3824 17.3334 16.7464 17.4977 16.9996 17.7844C17.2527 18.0711 17.3704 18.4527 17.3231 18.8321L16.5537 24.9861L25.1532 14.6668H16C15.6176 14.6668 15.2535 14.5025 15.0004 14.2158C14.7473 13.9291 14.6295 13.5474 14.6769 13.168L15.4461 7.01401L6.84671 17.3334Z"/>
</svg>

